<svg width="21" height="23" viewBox="0 0 21 23" fill="none" xmlns="http://www.w3.org/2000/svg">
<path d="M19.9086 16.7273H18.8631V8.36364C18.8631 3.75214 15.111 0 10.4995 0C5.888 0 2.13586 3.75214 2.13586 8.36364V16.7273H1.09039C0.512244 16.7273 0.0449219 17.1946 0.0449219 17.7728C0.0449219 18.3509 0.512244 18.8182 1.09039 18.8182H2.13586H6.31768C6.31768 21.1245 8.19321 23 10.4995 23C12.8058 23 14.6813 21.1245 14.6813 18.8182H18.8631H19.9086C20.4868 18.8182 20.9541 18.3509 20.9541 17.7727C20.9541 17.1946 20.4867 16.7273 19.9086 16.7273ZM10.4995 20.9091C9.34635 20.9091 8.40861 19.9713 8.40861 18.8182H12.5904C12.5904 19.9713 11.6526 20.9091 10.4995 20.9091ZM16.7722 16.7273H14.6813H6.31768H4.22679V8.36364C4.22679 4.90426 7.04011 2.09093 10.4995 2.09093C13.9589 2.09093 16.7722 4.90426 16.7722 8.36364V16.7273Z" fill="white"/>
</svg>
