<svg width="24" height="24" viewBox="0 0 24 24" fill="none" xmlns="http://www.w3.org/2000/svg">
<g clip-path="url(#clip0)">
<path d="M23.1426 11.8472C23.1426 12.3531 22.7472 12.7632 22.2593 12.7632L8.244 12.7632C7.7561 12.7632 7.36069 12.3531 7.36069 11.8472C7.36069 11.3412 7.7561 10.9311 8.244 10.9311L22.2593 10.9311C22.7472 10.9311 23.1426 11.3412 23.1426 11.8472Z" fill="#FAFAFA"/>
<path d="M18.3412 6.15322L22.905 11.2219C23.2218 11.574 23.2218 12.1202 22.905 12.4723L18.3412 17.541C18.0082 17.9108 17.4493 17.9309 17.0928 17.5856C16.9064 17.4055 16.8122 17.1609 16.8122 16.916C16.8122 16.6919 16.8908 16.4675 17.0498 16.291L21.0509 11.8473L17.0498 7.40366C16.7168 7.0333 16.7362 6.45407 17.0928 6.10902C17.4493 5.76393 18.0082 5.78347 18.3412 6.15322Z" fill="#FAFAFA"/>
<path d="M15.6055 2.68701V7.57251C15.6055 8.07847 15.2101 8.48854 14.7222 8.48854C14.2343 8.48854 13.8388 8.07847 13.8388 7.57251V3.60304L1.76685 3.60304L1.76685 20.3969L13.8388 20.3969L13.8388 16.4275C13.8388 15.9215 14.2343 15.5114 14.7222 15.5114C15.2101 15.5114 15.6055 15.9215 15.6055 16.4275L15.6055 21.313C15.6055 21.8189 15.2101 22.229 14.7222 22.229L0.883533 22.229C0.395635 22.229 0.000217438 21.8189 0.000217438 21.313L0.000217438 2.68701C0.000217438 2.18104 0.395635 1.77098 0.883533 1.77098L14.7222 1.77098C15.21 1.77098 15.6055 2.18104 15.6055 2.68701Z" fill="#FAFAFA"/>
</g>
<defs>
<clipPath id="clip0">
<rect width="24" height="23.1429" fill="white" transform="matrix(0 -1 -1 0 23.1426 24)"/>
</clipPath>
</defs>
</svg>
