<svg width="18" height="20" viewBox="0 0 18 20" fill="none" xmlns="http://www.w3.org/2000/svg">
<path d="M19.3617 18.2168L14.6017 13.2662C15.8256 11.8113 16.4962 9.98069 16.4962 8.07499C16.4962 3.62251 12.8737 0 8.42118 0C3.9687 0 0.346191 3.62251 0.346191 8.07499C0.346191 12.5275 3.9687 16.15 8.42118 16.15C10.0927 16.15 11.6856 15.6458 13.0475 14.6888L17.8436 19.677C18.0441 19.8852 18.3138 20 18.6027 20C18.8762 20 19.1356 19.8957 19.3326 19.7061C19.7511 19.3034 19.7644 18.6357 19.3617 18.2168ZM8.42118 2.10652C11.7123 2.10652 14.3897 4.78391 14.3897 8.07499C14.3897 11.3661 11.7123 14.0435 8.42118 14.0435C5.1301 14.0435 2.45271 11.3661 2.45271 8.07499C2.45271 4.78391 5.1301 2.10652 8.42118 2.10652Z" fill="#9DA4AB"/>
</svg>
