<svg width="24" height="24" viewBox="0 0 24 24" fill="none" xmlns="http://www.w3.org/2000/svg">
<path d="M12 0C5.38322 0 0 5.38322 0 12C0 18.6168 5.38322 24 12 24C18.6168 24 24 18.6168 24 12C24 5.38322 18.6168 0 12 0ZM12 22.1003C6.43059 22.1003 1.89975 17.5691 1.89975 12C1.89975 6.43092 6.43059 1.89975 12 1.89975C17.5691 1.89975 22.1003 6.43125 22.1003 12.0003C22.1003 17.5694 17.5691 22.1003 12 22.1003Z" fill="#FAFAFA"/>
<path d="M12.0002 14.1294C8.6253 14.1294 5.46761 15.8217 3.10938 18.8942L4.6165 20.0506C6.60709 17.4574 9.22937 16.0291 12.0002 16.0291C14.7709 16.0291 17.3932 17.4574 19.3835 20.0506L20.8906 18.8942C18.5324 15.8217 15.375 14.1294 12.0002 14.1294Z" fill="#FAFAFA"/>
<path d="M11.9999 4.30615C9.27628 4.30615 7.06055 6.53614 7.06055 9.27711C7.06055 12.0181 9.27628 14.2481 11.9999 14.2481C14.7234 14.2481 16.9392 12.0181 16.9392 9.27715C16.9392 6.53618 14.7234 4.30615 11.9999 4.30615ZM11.9999 12.3484C10.324 12.3484 8.96029 10.9707 8.96029 9.27711C8.96029 7.58346 10.324 6.20586 11.9999 6.20586C13.6757 6.20586 15.0394 7.58379 15.0394 9.27711C15.0394 10.9704 13.6757 12.3484 11.9999 12.3484Z" fill="#FAFAFA"/>
</svg>
